<svg width="27" height="22" viewBox="0 0 27 22" fill="none" xmlns="http://www.w3.org/2000/svg">
<path d="M0.668317 0C0.491068 0 0.321079 0.0658487 0.195745 0.18306C0.0704117 0.300272 0 0.459244 0 0.625006V18.3752C0 18.541 0.0704117 18.6999 0.195745 18.8171C0.321079 18.9343 0.491068 19.0002 0.668317 19.0002H18.5471C18.3138 18.7125 18.08 18.425 17.8457 18.1377C17.5537 17.7349 17.1298 17.3902 17.0055 16.9007C15.2865 17.5642 13.3115 17.6257 11.5477 17.0749C11.509 17.0632 11.471 17.0487 11.4325 17.0364C11.2301 17.2214 11.012 17.5439 10.9775 17.7502H8.43603C8.6269 17.1454 8.22163 16.2012 8.60498 15.5857C8.63546 15.5782 8.67235 15.5299 8.68919 15.4802C8.64588 15.4422 8.60204 15.4052 8.5598 15.3664C8.18394 15.4734 8.0337 15.7382 7.82465 15.9704C7.9388 16.4764 7.1149 16.3567 7.19804 16.8729C7.77199 17.2892 6.6682 16.9719 6.33992 17.0052C5.99159 17.0087 4.97254 16.6677 5.32622 17.3652C5.27088 17.5567 5.32194 17.6742 5.42379 17.7502H5.26767C5.24335 17.5312 4.80226 17.4987 4.63224 17.3912C4.34593 17.3262 4.00402 17.2937 3.70755 17.1702C3.63137 17.3682 2.9438 17.5947 2.7933 17.7502H1.33663V8.61734C1.54167 8.74584 2.00148 8.69484 1.37486 8.41734H1.33663V5.53881C1.45827 5.48131 1.54515 5.46306 1.5398 5.55931C1.84108 5.46431 1.97234 4.77855 2.49362 5.0593C2.81869 5.10405 3.35655 5.57531 3.08629 5.63431C3.29694 6.11531 3.44638 5.80556 3.70488 6.37882C3.52791 7.16282 4.20558 7.74383 4.57744 8.24359C5.0228 8.41659 5.19897 8.95509 5.92289 8.97609C6.02127 9.05659 6.14745 9.12959 6.27897 9.1996C6.31533 8.94093 6.36585 8.68476 6.43054 8.43109C6.41317 8.42734 6.39633 8.42509 6.37761 8.41934C5.68123 9.02009 5.53848 7.98008 6.21855 7.93933C6.264 7.93667 6.31301 7.93875 6.36558 7.94558C6.44445 7.93683 6.50994 7.94558 6.56528 7.96383C6.78862 7.27914 7.11953 6.62928 7.54717 6.03556C7.77702 5.71521 8.0348 5.41318 8.31787 5.13255C8.17726 4.91255 8.03344 4.7898 7.86368 5.07705C7.85085 4.6508 6.61848 4.20404 7.52525 4.61305C8.00082 4.9963 8.15667 4.54655 8.23179 4.23954C8.63947 3.84204 7.81396 3.70629 7.96447 3.44654C7.71425 3.09578 7.34373 2.73653 6.96306 2.51928C6.2247 2.59928 5.96593 2.45353 6.95317 2.45303C7.04219 2.02177 7.19002 1.71627 7.29187 1.35326C7.18494 1.32451 7.0732 1.32901 6.96306 1.32876C6.49069 1.26951 6.21027 1.44027 6.21989 1.77752C5.86515 1.75102 6.1838 1.18551 5.63685 1.35826C4.8076 1.34601 5.81008 1.60802 5.73309 1.64577C5.63819 1.84477 5.04071 1.72077 5.11102 1.92252C4.83728 1.44902 4.7127 2.14827 4.49964 1.66927C4.37133 1.55427 5.03697 1.78277 4.8854 1.36351C4.55017 1.24351 4.43014 1.45351 4.16896 1.53927C3.38944 1.94277 4.30503 2.32227 4.70094 2.45678C5.29761 2.30802 5.29708 2.12002 5.71197 2.32677C6.17712 2.56803 5.24228 2.39852 5.27088 2.76978C5.21742 2.53903 5.15058 2.39977 4.86187 2.69553C4.47692 2.76053 4.30503 2.26577 4.01765 2.30052C3.3627 2.21727 3.60731 3.59479 4.14677 3.12578C4.47318 3.65404 3.72974 3.26428 3.5092 3.20528C3.01117 3.72554 2.47464 3.19178 1.88011 3.17028C1.68977 3.05178 1.50318 3.05028 1.33663 3.11053V1.25001H8.34674C7.84684 1.26276 7.40041 1.32451 7.58219 1.66077C7.55278 2.30927 8.44993 1.79427 8.57905 2.38077C8.9517 2.79053 8.35744 3.66179 9.00196 3.50879C8.76484 3.77854 8.79452 4.20829 8.97951 4.54705C9.66387 4.00995 10.44 3.58434 11.2753 3.28803C11.29 3.21103 11.2785 3.12253 11.2293 3.01803C11.1457 2.62578 11.5349 2.50053 11.3985 2.06552C11.5819 1.73802 11.4397 1.39151 11.1253 1.25001H25.6634V3.01953C25.6219 3.00303 25.5793 2.989 25.5359 2.97753C25.1592 3.29678 25.4637 3.32703 25.6634 3.25528V3.53429C25.218 3.30003 24.7288 3.27428 24.2538 3.37178C24.038 3.02103 23.2743 3.02928 23.023 2.71353C22.5803 2.21752 23.158 2.36552 23.5443 2.32727C23.4347 2.01727 22.777 1.87027 22.4993 1.92152C21.9975 2.17852 22.7629 2.40903 22.6856 2.75403C22.6856 3.00478 22.3587 3.00653 22.0734 2.99278C22.1887 2.72728 21.5273 2.40077 21.265 2.61678C20.7686 2.47628 20.5793 2.55878 20.9068 2.07527C20.7924 1.70352 20.3195 1.69652 20.1075 1.43851C19.8367 1.97552 19.3852 1.81277 18.9013 2.13977C18.7075 2.40477 18.3039 2.64278 18.2838 2.81778C17.9839 2.94953 17.6837 2.27727 17.4733 2.87278C17.2824 3.37678 17.484 3.62104 16.84 3.20853C16.1735 2.54428 18.1788 1.97527 17.4334 1.69252C16.8149 1.86127 16.443 2.26902 16.32 2.84828C16.2535 2.98003 16.2837 3.07178 16.354 3.14603C18.7022 3.80104 20.6454 5.56706 21.4353 7.73358C21.4476 7.60308 21.4709 7.47758 21.5177 7.38583C21.7152 7.24482 21.5586 7.92708 21.9668 7.53908C21.666 8.14283 22.7228 7.61908 22.8658 7.36983C22.6562 6.87782 23.6197 6.64607 23.5972 6.55332C23.2425 6.20531 23.444 6.55157 23.0527 6.63132C22.923 6.46982 23.3013 5.58431 22.7979 5.66556C22.0462 5.48456 23.4373 4.9668 23.8129 5.1573C23.984 4.5653 24.23 5.0368 23.8073 5.30905C23.6464 5.83431 23.7234 6.55082 24.1968 5.84881C24.4096 5.65506 24.3567 5.15005 24.6336 5.06205C25.0057 4.89805 25.6698 4.7698 25.6524 4.26279C25.6561 4.26179 25.6596 4.26204 25.6634 4.26129V17.7502H24.605C24.8344 17.4532 25.1378 16.9452 24.8165 16.7609C24.3323 16.6827 23.9707 16.1367 23.3855 16.1594C23.1214 15.8749 22.5132 15.7309 22.3496 15.6754C22.186 15.6199 21.9021 15.9407 21.6112 15.7989C21.5237 15.7858 21.4343 15.7873 21.3474 15.8034C22.2226 16.8659 23.0895 17.9342 23.9597 19.0002H26.3317C26.5089 19.0002 26.6789 18.9343 26.8043 18.8171C26.9296 18.6999 27 18.541 27 18.3752V0.625006C27 0.459244 26.9296 0.300272 26.8043 0.18306C26.6789 0.0658487 26.5089 0 26.3317 0H0.668317ZM13.6845 1.33001C13.2541 1.52827 14.0173 2.31752 14.0384 1.56402C14.1173 1.67402 14.6463 1.78502 14.4733 1.43026C14.0889 1.21851 14.1472 1.46201 13.6842 1.33026M19.8544 1.33076C19.39 1.54227 20.2607 1.54627 19.8544 1.33076V1.33076ZM5.10327 1.40251C4.75574 1.64402 5.61333 1.88302 5.14871 1.41526L5.10327 1.40251ZM7.94896 1.54577C7.86315 1.59602 8.03584 1.62377 7.94896 1.54577V1.54577ZM4.59267 1.85452C4.57129 1.85777 4.63357 1.89877 4.59267 1.85452V1.85452ZM5.78308 1.95752C5.751 2.11752 6.20198 2.02552 5.78308 1.95752V1.95752ZM6.36986 2.00252C6.51609 2.09502 6.76818 1.97877 6.36986 2.00252V2.00252ZM5.20031 2.01902C5.16716 2.13127 5.45935 2.04402 5.20031 2.01902V2.01902ZM6.02955 2.37102C5.9007 2.44728 6.29153 2.42753 6.02955 2.37102V2.37102ZM6.21428 2.76078C6.05655 3.23128 6.77486 3.86829 6.21749 3.33203C6.06431 3.11753 5.98464 2.91203 6.21428 2.76078ZM5.27917 2.80828C5.5088 3.16703 5.85847 3.26278 5.56574 3.38629C5.3714 3.29828 5.32649 3.02428 5.27917 2.80828ZM8.88247 3.16978C8.79532 3.17478 8.91481 3.19003 8.88247 3.16978V3.16978ZM3.46215 3.28303C3.42071 3.28478 3.43221 3.39654 3.46215 3.28303V3.28303ZM5.53233 3.46654C5.41016 3.46229 5.51361 3.70304 5.53233 3.46654V3.46654ZM7.06892 3.46804C6.96894 3.93054 7.36565 3.90104 7.33892 3.94754C7.01118 4.08254 7.08951 4.63855 6.83875 4.21429C6.6805 4.14529 6.92002 3.53479 7.02775 3.48129L7.06892 3.46804ZM5.45774 3.46854C5.45534 3.57679 5.49276 3.47604 5.45774 3.46854V3.46854ZM24.7951 3.51004C24.7486 3.55254 24.8058 3.52704 24.7951 3.51004V3.51004ZM5.47699 3.57054C5.23265 3.73304 5.65931 3.74904 5.47699 3.57054V3.57054ZM13.9721 3.81629C12.5144 3.82583 11.0994 4.27804 9.94028 5.1048C6.97562 7.21607 6.39873 11.1961 8.65631 13.9686C10.7695 16.5639 14.6284 17.1899 17.5449 15.5282L18.102 16.2124C17.9924 16.4509 18.0026 16.6789 18.1301 16.8359L22.1721 21.7997C22.4127 22.095 22.9936 22.0597 23.4694 21.7207C23.9453 21.382 24.1359 20.8677 23.8955 20.5722L19.8536 15.6084C19.7258 15.4514 19.4935 15.3814 19.2184 15.4169L18.6613 14.7329C21.1498 12.5454 21.5313 8.90034 19.4183 6.30507C18.2894 4.9188 16.6609 4.09129 14.9441 3.87379C14.622 3.83297 14.2972 3.81376 13.9721 3.81629ZM6.38296 4.4433C6.55004 4.8143 7.19537 4.59655 6.94274 5.1023C7.22397 5.34981 6.8981 6.22231 6.78876 5.47881C6.0889 5.47556 5.75474 4.82255 6.34233 4.4798L6.38296 4.4433ZM6.99273 4.5048C6.6559 4.59955 7.20659 4.6748 6.99273 4.5048V4.5048ZM23.7883 4.9618C23.8071 4.9493 23.8536 5.03905 23.7883 4.9618V4.9618ZM14.2413 5.21705C14.4097 5.22322 14.5772 5.23672 14.7439 5.25755C15.429 5.34415 16.089 5.55655 16.686 5.88254C17.283 6.20853 17.8052 6.64167 18.2226 7.15707C18.6425 7.67051 18.9499 8.25645 19.127 8.88127C19.3042 9.50609 19.3476 10.1575 19.2549 10.798C19.1621 11.4386 18.935 12.0557 18.5866 12.614C18.2381 13.1722 17.7752 13.6606 17.2244 14.0511C16.6754 14.4439 16.0488 14.7314 15.3807 14.8971C14.7125 15.0628 14.016 15.1034 13.331 15.0167C12.646 14.9299 11.9861 14.7175 11.3891 14.3916C10.7922 14.0657 10.2699 13.6328 9.85233 13.1176C9.43241 12.6042 9.12507 12.0182 8.94794 11.3934C8.77081 10.7686 8.72739 10.1172 8.82016 9.47662C8.91293 8.83606 9.14007 8.21894 9.48855 7.66069C9.83702 7.10244 10.3 6.61405 10.8508 6.22356C11.8209 5.52857 13.0202 5.17253 14.2413 5.21705ZM24.5569 5.47456C24.1372 5.79931 25.0608 5.73981 24.5569 5.47456V5.47456ZM25.0568 5.74506C24.5922 5.95731 25.4629 5.95756 25.0568 5.74506V5.74506ZM25.3594 5.84406C24.9451 6.16656 25.7818 5.99706 25.3594 5.84406V5.84406ZM25.3428 5.91406C25.3287 5.93681 25.3658 5.91381 25.3428 5.91406V5.91406ZM25.3824 5.95431C25.349 5.95831 25.395 5.97331 25.3824 5.95431V5.95431ZM14.0641 6.21506C13.4797 6.20531 12.9028 6.32757 12.3708 6.54707C12.3986 6.57882 12.4384 6.60932 12.4967 6.63682C11.9621 6.47432 11.8065 7.10607 12.0316 7.39033L12.3933 7.41808L12.6956 7.29358C12.891 7.10357 12.9397 7.13632 13.0028 6.84857L13.1207 6.86282L13.2142 6.82632L13.4273 6.92482C13.6829 7.01832 13.6949 7.21983 13.6093 7.27883C13.4882 7.34858 13.631 7.35883 13.6428 7.40208C13.7032 7.38583 13.7385 7.33708 13.7764 7.31108L13.8449 7.28808C14.0945 7.13482 13.9202 7.08432 13.7467 6.87757L13.8387 6.89957C13.9732 7.04207 14.0523 7.20332 14.132 7.37458C14.141 7.38133 14.1493 7.39008 14.1598 7.39308C14.2202 7.41183 14.3055 7.40558 14.3784 7.38683C14.4506 7.36833 14.4554 7.23957 14.4431 7.11632C14.5461 7.55533 15.5555 7.42483 14.9548 7.69258C14.6086 7.69983 14.0584 7.52233 13.9571 7.74658C13.7331 7.65158 13.6187 7.58933 13.5732 7.54058C13.4353 7.49208 13.0383 7.35158 13.0242 7.35158C13.0073 7.35158 12.5021 7.43758 12.5021 7.43758L12.085 7.58558C11.9495 7.99408 11.7356 7.77558 11.6629 8.09233C11.606 8.29484 11.116 8.73234 11.3726 9.07684C11.6017 10.0734 12.9301 9.40985 13.2396 9.88835C13.0942 10.1831 13.8136 10.7439 13.411 11.2266C13.6008 11.9279 14.1108 13.1001 14.9315 12.1021C15.1481 11.5046 15.6143 11.1816 15.5977 10.5889C15.3499 10.0051 16.8087 9.57235 16.2251 9.09959C16.0853 9.11509 16.0693 9.14334 15.9583 9.17785C15.7252 9.16959 15.6651 8.99384 15.5857 8.88334C15.5251 8.80272 15.4714 8.7177 15.4253 8.62909C15.5737 8.84409 15.7268 9.02659 15.9418 9.13884C16.3136 9.06084 16.74 8.80359 16.9135 8.61484C16.9092 7.87908 17.9668 8.64234 17.9454 9.19534C18.0109 9.34435 18.094 9.44785 18.1774 9.50835C18.1184 9.15463 18.0055 8.81063 17.8422 8.48684C17.5457 7.87833 17.071 7.35583 16.4941 6.96482C16.4834 6.98032 16.4566 6.98132 16.462 6.94382C16.3839 6.89216 16.3042 6.8429 16.2227 6.79607C16.2316 6.8309 16.2422 6.86615 16.2545 6.90182C16.2195 6.85307 16.1826 6.80357 16.1521 6.75582C15.5223 6.40882 14.8 6.20981 14.0643 6.21481L14.0641 6.21506ZM22.7621 6.24806C22.9559 6.76457 22.0879 7.96158 21.9617 7.17582C22.0507 6.78732 22.7631 6.84582 22.7621 6.24806ZM6.48855 6.38457C6.48241 6.40332 6.52758 6.38032 6.48855 6.38457V6.38457ZM6.90051 6.56632C6.80641 6.61182 6.9783 6.62682 6.90051 6.56632V6.56632ZM14.9278 6.58282C15.1435 6.75282 15.8054 6.97782 15.1048 6.79832C14.7401 6.95407 14.6273 6.85432 14.9278 6.58282ZM13.2602 6.88532C13.2132 6.89882 13.253 6.99007 13.2236 7.01882C13.4241 7.11057 13.3118 6.93207 13.3415 6.90282C13.3008 6.88482 13.2757 6.88057 13.2602 6.88532ZM16.3166 7.07157C16.3786 7.22232 16.4197 7.31858 16.2604 7.13157C16.2737 7.12571 16.2855 7.11735 16.2952 7.10703C16.3048 7.09671 16.3121 7.08464 16.3166 7.07157ZM13.2789 7.09032C13.2003 7.08232 13.1586 7.13157 13.1584 7.20032C13.3655 7.30558 13.3441 7.13182 13.3695 7.11857C13.3413 7.10412 13.3108 7.09455 13.2789 7.09032ZM16.4796 8.16109C16.5978 8.16558 16.3665 8.32109 16.4061 8.16984C16.439 8.16308 16.4628 8.16033 16.4796 8.16109ZM24.6227 9.13909C24.2377 9.5216 25.0814 9.58885 24.6227 9.13909V9.13909ZM24.5959 9.1986C24.5887 9.2241 24.6355 9.1946 24.5959 9.1986V9.1986ZM24.6291 9.25335C24.589 9.2471 24.6328 9.2791 24.6291 9.25335V9.25335ZM24.909 9.30335C24.5361 9.60685 25.3591 9.49635 24.909 9.30335V9.30335ZM24.9491 9.3896C24.9437 9.42635 24.9774 9.3851 24.9491 9.3896V9.3896ZM24.8964 9.40285C24.8748 9.42035 24.921 9.43385 24.8964 9.40285V9.40285ZM21.8497 9.79585C21.8563 9.95185 21.8577 10.1077 21.854 10.2634C22.1606 10.3091 22.5447 10.2961 22.552 10.6134C23.1016 10.6356 22.4953 11.3864 22.4752 10.6914C22.2513 10.6612 22.0229 10.6974 21.8221 10.7949C21.7665 11.3404 21.6471 11.8786 21.4661 12.3999C21.9152 12.2666 22.3734 12.2796 22.6439 12.6879C23.3563 12.6854 22.7503 13.1396 23.2553 13.2324C23.4705 12.8214 23.1419 12.8731 23.5456 12.5381C23.9372 12.0699 23.6809 11.4651 23.2903 11.2094C23.209 10.9199 22.8853 10.7634 23.0377 10.5659C23.3344 10.9421 23.7549 10.6604 23.4039 10.4569C23.663 10.2306 24.5884 11.0399 24.0688 10.4174C23.8121 10.3729 23.4595 9.8766 23.3796 10.1961C23.3566 10.4611 22.6495 9.79385 22.3886 10.0669C22.3132 9.82085 21.9443 9.96935 21.9235 10.0791C22.0368 9.9141 21.9654 9.82885 21.8497 9.79585ZM23.2098 10.0096C22.8268 10.2131 23.5558 10.2061 23.2098 10.0096V10.0096ZM13.2025 10.0271C13.1936 10.0379 13.2332 10.0921 13.2025 10.0271V10.0271ZM9.84671 10.0576C9.83868 10.4048 9.87994 10.7514 9.96942 11.0884C10.2768 10.6529 10.2648 10.2439 9.84671 10.0576ZM23.1901 10.0696C23.1617 10.0756 23.2131 10.0851 23.1901 10.0696V10.0696ZM23.4491 10.0996C23.324 10.1821 23.5739 10.1821 23.4491 10.0996V10.0996ZM23.4491 10.1021C23.3352 10.1786 23.5627 10.1786 23.4491 10.1021V10.1021ZM23.2157 10.1239C23.1762 10.1194 23.22 10.1491 23.2157 10.1239V10.1239ZM21.8518 10.3954C21.8491 10.4554 21.8435 10.5154 21.8393 10.5754C21.9256 10.4844 21.963 10.3904 21.8518 10.3954ZM15.7589 10.6544C15.4499 10.8131 16.0896 10.8856 15.8223 10.6994L15.8108 10.6726L15.7589 10.6544ZM16.1203 10.6989C15.815 10.8774 15.3413 11.7284 15.9982 11.7551C16.1564 11.5791 16.5577 10.7944 16.1203 10.6989ZM24.4011 11.2409C24.1564 11.6921 25.1113 11.5116 24.4011 11.2409V11.2409ZM16.6095 11.3009C16.2123 11.5501 16.9948 11.5186 16.6095 11.3009V11.3009ZM25.0386 12.3299C25.2648 12.8086 24.5147 13.0954 24.5713 13.5399C24.9563 13.7134 25.1549 13.0604 25.426 12.8606C25.7465 12.5986 25.1736 12.5211 25.0386 12.3299ZM7.25926 13.8024C7.3031 14.0659 7.43516 14.3209 7.67094 14.3987C7.52339 14.2063 7.38599 14.0073 7.25926 13.8024Z" fill="#B8B8B8"/>
</svg>
