<svg width="22" height="22" viewBox="0 0 22 22" fill="none" xmlns="http://www.w3.org/2000/svg">
<path d="M2.34438 16.9929C3.51716 16.9929 4.47006 18.0699 4.47006 19.3954C4.47006 20.7208 3.51716 21.7978 2.34438 21.7978C1.1716 21.7978 0.21875 20.7208 0.21875 19.3954C0.21875 18.0699 1.1716 16.9929 2.34438 16.9929ZM2.34438 8.62591C3.51716 8.62591 4.47006 9.66144 4.47006 10.9869C4.47006 12.3124 3.51716 13.3893 2.34438 13.3893C1.1716 13.3893 0.21875 12.3124 0.21875 10.9869C0.21875 9.66144 1.1716 8.62591 2.34438 8.62591ZM2.34438 0.21746C3.51716 0.21746 4.47006 1.2944 4.47006 2.61987C4.47006 3.90392 3.51716 4.98087 2.34438 4.98087C1.1716 4.98087 0.21875 3.90392 0.21875 2.61987C0.21875 1.2944 1.1716 0.21746 2.34438 0.21746ZM8.68472 0.21746C11.2868 -0.0724867 15.868 -0.0724867 19.1298 0.21746C20.2659 0.300302 21.2188 1.2944 21.2188 2.61987C21.2188 3.90392 20.2659 4.89803 19.1298 4.98087C15.868 5.27082 11.2868 5.27082 8.68472 4.98087C7.54859 4.89803 6.59569 3.90392 6.59569 2.61987C6.59569 1.2944 7.54859 0.341723 8.68472 0.21746ZM8.68472 8.62591C11.2868 8.33597 15.868 8.33597 19.1298 8.62591C20.2659 8.70875 21.2188 9.70286 21.2188 10.9869C21.2188 12.3124 20.2659 13.3065 19.1298 13.3893C15.868 13.6793 11.2868 13.6793 8.68472 13.3893C7.54859 13.2651 6.59569 12.3124 6.59569 10.9869C6.59569 9.70286 7.54859 8.70875 8.68472 8.62591ZM8.68472 16.9929C11.2868 16.7444 15.868 16.703 19.1298 16.9929C20.2659 17.1172 21.2188 18.0699 21.2188 19.3954C21.2188 20.7208 20.2659 21.7149 19.1298 21.7978C15.868 22.0877 11.2868 22.0463 8.68472 21.7978C7.54859 21.6735 6.59569 20.7208 6.59569 19.3954C6.59569 18.0699 7.54859 17.1172 8.68472 16.9929Z" fill="url(#paint0_linear_624_1761)"/>
<defs>
<linearGradient id="paint0_linear_624_1761" x1="-2.71319" y1="21.922" x2="-2.71319" y2="0.0931978" gradientUnits="userSpaceOnUse">
<stop stop-color="#D4FFFC"/>
<stop offset="1" stop-color="white"/>
</linearGradient>
</defs>
</svg>
