<svg width="22" height="21" viewBox="0 0 22 21" fill="none" xmlns="http://www.w3.org/2000/svg">
<path d="M12.1308 0C13.3682 0.00314992 13.9963 0.00944977 14.5386 0.0241494L14.752 0.0314992C14.9984 0.039899 15.2415 0.0503987 15.5351 0.0629984C16.7055 0.115497 17.504 0.291893 18.2047 0.551237C18.9307 0.81793 19.5422 1.17912 20.1538 1.76186C20.7133 2.28656 21.1462 2.92153 21.422 3.62241C21.6937 4.29125 21.8785 5.05353 21.9335 6.17175C21.9467 6.45104 21.9577 6.68309 21.9665 6.91933L21.9731 7.12303C21.9896 7.63962 21.9962 8.23915 21.9984 9.42037L21.9995 10.2037V11.5791C22.0022 12.345 21.9938 13.1108 21.9742 13.8765L21.9676 14.0802C21.9588 14.3164 21.9478 14.5484 21.9346 14.8277C21.8796 15.946 21.6926 16.7072 21.422 17.3771C21.1462 18.078 20.7133 18.7129 20.1538 19.2376C19.6041 19.7717 18.9389 20.1849 18.2047 20.4483C17.504 20.7076 16.7055 20.884 15.5351 20.9365L14.752 20.968L14.5386 20.9743C13.9963 20.989 13.3682 20.9963 12.1308 20.9984L11.3103 20.9995H9.87043C9.06775 21.0022 8.26508 20.9941 7.46265 20.9753L7.24926 20.969C6.98814 20.9596 6.72709 20.9488 6.4661 20.9365C5.29576 20.884 4.4972 20.7076 3.79543 20.4483C3.06158 20.1848 2.39679 19.7716 1.84743 19.2376C1.2875 18.713 0.854302 18.0781 0.578097 17.3771C0.30641 16.7082 0.121619 15.946 0.0666222 14.8277L0.0336239 14.0802L0.0281244 13.8765C0.00784803 13.1108 -0.00131916 12.345 0.000625645 11.5791V9.42037C-0.00241889 8.65452 0.00564823 7.88867 0.0248245 7.12303L0.0325241 6.91933C0.0413236 6.68309 0.0523231 6.45104 0.0655224 6.17175C0.12052 5.05353 0.30531 4.2923 0.576997 3.62241C0.853846 2.92124 1.28781 2.28625 1.84853 1.76186C2.39757 1.228 3.06198 0.814857 3.79543 0.551237C4.4972 0.291893 5.29466 0.115497 6.4661 0.0629984C6.75868 0.0503987 7.00287 0.039899 7.24926 0.0314992L7.46265 0.0251993C8.26472 0.00654418 9.06702 -0.0015064 9.86933 0.0010499L12.1308 0ZM11.0001 5.24987C9.54145 5.24987 8.14258 5.80298 7.11118 6.78753C6.07978 7.77207 5.50035 9.10739 5.50035 10.4997C5.50035 11.8921 6.07978 13.2274 7.11118 14.212C8.14258 15.1965 9.54145 15.7496 11.0001 15.7496C12.4587 15.7496 13.8576 15.1965 14.889 14.212C15.9204 13.2274 16.4998 11.8921 16.4998 10.4997C16.4998 9.10739 15.9204 7.77207 14.889 6.78753C13.8576 5.80298 12.4587 5.24987 11.0001 5.24987ZM11.0001 7.34982C11.4334 7.34975 11.8625 7.43116 12.2629 7.5894C12.6633 7.74763 13.0271 7.97959 13.3336 8.27204C13.64 8.56449 13.8832 8.9117 14.0491 9.29384C14.215 9.67598 14.3004 10.0856 14.3005 10.4992C14.3005 10.9129 14.2152 11.3225 14.0495 11.7047C13.8837 12.0869 13.6407 12.4342 13.3343 12.7267C13.028 13.0193 12.6642 13.2513 12.2639 13.4097C11.8636 13.5681 11.4345 13.6496 11.0012 13.6497C10.126 13.6497 9.28667 13.3178 8.66784 12.7271C8.049 12.1364 7.70134 11.3352 7.70134 10.4997C7.70134 9.66433 8.049 8.86314 8.66784 8.27241C9.28667 7.68169 10.126 7.34982 11.0012 7.34982M16.7759 3.67491C16.4112 3.67491 16.0615 3.81319 15.8037 4.05932C15.5458 4.30546 15.4009 4.63929 15.4009 4.98738C15.4009 5.33547 15.5458 5.6693 15.8037 5.91543C16.0615 6.16157 16.4112 6.29985 16.7759 6.29985C17.1405 6.29985 17.4903 6.16157 17.7481 5.91543C18.006 5.6693 18.1508 5.33547 18.1508 4.98738C18.1508 4.63929 18.006 4.30546 17.7481 4.05932C17.4903 3.81319 17.1405 3.67491 16.7759 3.67491Z" fill="#F5ECEC"/>
</svg>
