<svg width="27" height="26" viewBox="0 0 27 26" fill="none" xmlns="http://www.w3.org/2000/svg">
<path d="M13.5 26C11.642 26 9.89201 25.6581 8.25001 24.9744C6.60801 24.2898 5.17801 23.3605 3.96001 22.1867C2.74201 21.0128 1.77701 19.6358 1.06501 18.0555C0.353008 16.4753 -0.0019916 14.7901 8.40336e-06 13C8.40336e-06 11.205 0.355008 9.5184 1.06501 7.94011C1.77601 6.36085 2.74101 4.98526 3.96001 3.81333C5.17901 2.64141 6.60901 1.71215 8.25001 1.02556C9.89201 0.341852 11.642 0 13.5 0C15.364 0 17.1155 0.341852 18.7545 1.02556C20.3945 1.71022 21.8235 2.63948 23.0415 3.81333C24.2595 4.98718 25.224 6.36278 25.935 7.94011C26.645 9.51937 27 11.206 27 13C27 14.7892 26.645 16.4744 25.935 18.0555C25.224 19.6367 24.259 21.0138 23.04 22.1867C21.821 23.3595 20.3925 24.2888 18.7545 24.9744C17.1165 25.6601 15.365 26.0019 13.5 26ZM13.5 24.5671C14.38 23.478 15.106 22.4086 15.678 21.359C16.249 20.3094 16.7135 19.1345 17.0715 17.8345H9.92851C10.3255 19.2077 10.7995 20.4191 11.3505 21.4688C11.9025 22.5184 12.619 23.5512 13.5 24.5671ZM11.5905 24.3504C10.8905 23.556 10.2515 22.5738 9.67351 21.4038C9.09551 20.2347 8.66551 19.0445 8.38351 17.8331H2.63101C3.49101 19.629 4.70951 21.1024 6.28651 22.2531C7.86451 23.4029 9.63251 24.102 11.5905 24.3504ZM15.4095 24.3504C17.3675 24.102 19.1355 23.4029 20.7135 22.2531C22.2905 21.1024 23.509 19.629 24.369 17.8331H18.618C18.238 19.0628 17.7595 20.2622 17.1825 21.4312C16.6045 22.6012 16.0135 23.5753 15.4095 24.3504ZM2.01901 16.3901H8.07151C7.95751 15.7969 7.87751 15.2191 7.83151 14.6568C7.78351 14.0954 7.75951 13.5431 7.75951 13C7.75951 12.4569 7.78301 11.9046 7.83001 11.3432C7.87701 10.7818 7.95701 10.204 8.07001 9.60989H2.02051C1.85751 10.1106 1.73001 10.6561 1.63801 11.2464C1.54601 11.8358 1.50001 12.4203 1.50001 13C1.50001 13.5797 1.54551 14.1647 1.63651 14.755C1.72751 15.3453 1.85501 15.8898 2.01901 16.3887M9.5715 16.3887H17.4285C17.5425 15.7964 17.6225 15.2283 17.6685 14.6842C17.7165 14.1411 17.7405 13.5797 17.7405 13C17.7405 12.4203 17.717 11.8589 17.67 11.3158C17.623 10.7727 17.543 10.2045 17.43 9.61133H9.57001C9.45701 10.2036 9.37701 10.7717 9.33001 11.3158C9.28301 11.8589 9.25951 12.4203 9.25951 13C9.25951 13.5797 9.28301 14.1411 9.33001 14.6842C9.37701 15.2273 9.4585 15.7955 9.5715 16.3887ZM18.93 16.3887H24.981C25.144 15.8889 25.2715 15.3443 25.3635 14.755C25.4545 14.1647 25.5 13.5797 25.5 13C25.5 12.4203 25.4545 11.8353 25.3635 11.245C25.2725 10.6547 25.145 10.1101 24.981 9.61133H18.9285C19.0425 10.2036 19.1225 10.7808 19.1685 11.3432C19.2165 11.9056 19.2405 12.4578 19.2405 13C19.2405 13.5421 19.217 14.0944 19.17 14.6568C19.123 15.2191 19.043 15.7969 18.93 16.3901M18.618 8.16689H24.369C23.49 6.33341 22.286 4.86007 20.757 3.74689C19.228 2.6337 17.4455 1.92544 15.4095 1.62211C16.1095 2.509 16.739 3.52348 17.298 4.66555C17.857 5.80666 18.297 6.97378 18.618 8.16689ZM9.92851 8.16689H17.0715C16.6755 6.81104 16.187 5.58518 15.606 4.48933C15.025 3.39348 14.323 2.37467 13.5 1.43289C12.677 2.3737 11.975 3.39252 11.394 4.48933C10.813 5.58615 10.3235 6.812 9.92851 8.16689ZM2.63251 8.16689H8.38351C8.7045 6.97474 9.14451 5.80763 9.70351 4.66555C10.2625 3.52348 10.892 2.509 11.592 1.62211C9.538 1.92641 7.75101 2.639 6.23101 3.75989C4.71101 4.8827 3.51101 6.35122 2.63101 8.16544" fill="#D9D9D9"/>
</svg>
