<svg width="27" height="26" viewBox="0 0 27 26" fill="none" xmlns="http://www.w3.org/2000/svg">
<path fill-rule="evenodd" clip-rule="evenodd" d="M15.5001 3.03755C16.6589 3.29068 17.709 3.72462 18.6505 4.33936L20.4611 3.1822C20.9319 2.8929 21.5474 2.96523 21.9458 3.363L22.8873 4.26704C23.2856 4.66481 23.358 5.27956 23.0321 5.74965L21.9096 7.55772C22.489 8.53408 22.9597 9.58275 23.2132 10.7038L25.2773 11.1739C25.8566 11.2823 26.2187 11.7886 26.2187 12.331V13.669C26.2187 14.2114 25.8566 14.6815 25.2773 14.8261L23.2132 15.2962C22.9597 16.4172 22.489 17.4659 21.9096 18.4423L23.0321 20.2142C23.358 20.7204 23.2856 21.299 22.8873 21.6968L21.9458 22.637C21.5474 23.0348 20.9319 23.1071 20.4611 22.8178L18.6505 21.6606C17.709 22.2754 16.6589 22.7093 15.5001 22.9624L15.0293 25.0598C14.9207 25.6022 14.45 26 13.8706 26H12.567C11.9876 26 11.5168 25.6022 11.4082 25.0598L10.9374 22.9624C9.77865 22.7093 8.72851 22.2754 7.787 21.6606L5.97642 22.8178C5.50567 23.1071 4.89006 23.0348 4.49173 22.637L3.55023 21.6968C3.1519 21.299 3.07947 20.7204 3.40538 20.2142L4.52795 18.4423C3.94856 17.4659 3.4778 16.4172 3.22432 15.2962L1.16027 14.8261C0.58088 14.6815 0.21875 14.2114 0.21875 13.669V12.331C0.21875 11.7886 0.58088 11.2823 1.16027 11.1739L3.22432 10.7038C3.4778 9.58275 3.94856 8.53408 4.52795 7.55772L3.40538 5.74965C3.07947 5.27956 3.1519 4.66481 3.55023 4.26704L4.49173 3.363C4.89006 2.96523 5.50567 2.8929 5.97642 3.1822L7.787 4.33936C8.72851 3.72462 9.77865 3.29068 10.9374 3.03755L11.4082 0.940194C11.5168 0.397774 11.9876 0 12.567 0H13.8706C14.45 0 14.9207 0.397774 15.0293 0.940194L15.5001 3.03755ZM7.09897 13.0181C7.09897 16.3811 9.85107 19.0932 13.2188 19.0932C16.5864 19.0932 19.3385 16.3811 19.3385 13.0181C19.3385 9.65508 16.5864 6.90681 13.2188 6.90681C9.85107 6.90681 7.09897 9.65508 7.09897 13.0181Z" fill="url(#paint0_linear_624_1760)"/>
<defs>
<linearGradient id="paint0_linear_624_1760" x1="-2.67819" y1="26" x2="-2.67819" y2="0" gradientUnits="userSpaceOnUse">
<stop stop-color="#D4FFFC"/>
<stop offset="1" stop-color="white"/>
</linearGradient>
</defs>
</svg>
