<svg width="24" height="24" viewBox="0 0 24 24" fill="none" xmlns="http://www.w3.org/2000/svg">
<path d="M12.5932 23.2579L12.5822 23.2599L12.5112 23.2949L12.4912 23.2989L12.4772 23.2949L12.4062 23.2599C12.3955 23.2566 12.3875 23.2583 12.3822 23.2649L12.3782 23.2749L12.3612 23.7029L12.3662 23.7229L12.3762 23.7359L12.4802 23.8099L12.4952 23.8139L12.5072 23.8099L12.6112 23.7359L12.6232 23.7199L12.6272 23.7029L12.6102 23.2759C12.6075 23.2653 12.6018 23.2593 12.5932 23.2579ZM12.8582 23.1449L12.8452 23.1469L12.6602 23.2399L12.6502 23.2499L12.6472 23.2609L12.6652 23.6909L12.6702 23.7029L12.6782 23.7099L12.8792 23.8029C12.8918 23.8063 12.9015 23.8036 12.9082 23.7949L12.9122 23.7809L12.8782 23.1669C12.8748 23.1549 12.8682 23.1476 12.8582 23.1449ZM12.1432 23.1469C12.1388 23.1443 12.1335 23.1434 12.1285 23.1445C12.1234 23.1456 12.119 23.1487 12.1162 23.1529L12.1102 23.1669L12.0762 23.7809C12.0768 23.7929 12.0825 23.8009 12.0932 23.8049L12.1082 23.8029L12.3092 23.7099L12.3192 23.7019L12.3232 23.6909L12.3402 23.2609L12.3372 23.2489L12.3272 23.2389L12.1432 23.1469Z" fill="#EAE8E8"/>
<path d="M4.59453 4.9839C4.77558 4.96286 4.95895 4.99171 5.12479 5.06732C5.29064 5.14293 5.43267 5.26243 5.53553 5.4129C7.01153 7.5719 8.78353 8.4699 10.7505 8.6739C10.8465 7.8329 11.0735 7.0019 11.5005 6.2699C12.1265 5.1959 13.1445 4.4059 14.5985 4.1139C16.6085 3.7099 18.1385 4.4379 19.0255 5.3289L20.8175 4.9939C21.0051 4.95877 21.1987 4.97801 21.3757 5.04935C21.5526 5.1207 21.7054 5.24117 21.8161 5.39655C21.9268 5.55193 21.9908 5.73574 22.0004 5.92628C22.0101 6.11682 21.965 6.30614 21.8705 6.4719L20.1505 9.4939C20.3075 13.8549 19.0955 16.8989 16.5115 18.9959C15.1415 20.1079 13.1795 20.7389 11.0265 20.9339C8.85653 21.1299 6.40353 20.8929 3.96553 20.1809C3.75722 20.1201 3.57433 19.9933 3.44446 19.8194C3.31458 19.6456 3.24477 19.4343 3.24556 19.2173C3.24635 19.0003 3.3177 18.7894 3.44884 18.6166C3.57998 18.4437 3.76379 18.3181 3.97253 18.2589C5.19853 17.9099 6.13253 17.6089 6.97553 17.0819C5.77653 16.4459 4.89353 15.6139 4.26853 14.6659C3.40053 13.3479 3.07853 11.8779 3.01453 10.5529C2.95053 9.2279 3.14153 7.9999 3.34353 7.1149C3.45853 6.6099 3.59253 6.1039 3.77753 5.6199C3.84279 5.44929 3.95353 5.29982 4.09773 5.1877C4.24194 5.07558 4.4131 5.0051 4.59453 4.9839Z" fill="#EAE8E8"/>
</svg>
