<svg width="29" height="20" viewBox="0 0 29 20" fill="none" xmlns="http://www.w3.org/2000/svg">
<path d="M11.6 14.2857L19.1255 10L11.6 5.71429V14.2857ZM28.362 3.1C28.5505 3.77143 28.681 4.67143 28.768 5.81429C28.8695 6.95714 28.913 7.94286 28.913 8.8L29 10C29 13.1286 28.768 15.4286 28.362 16.9C27.9995 18.1857 27.1585 19.0143 25.8535 19.3714C25.172 19.5571 23.925 19.6857 22.011 19.7714C20.126 19.8714 18.4005 19.9143 16.8055 19.9143L14.5 20C8.4245 20 4.64 19.7714 3.1465 19.3714C1.8415 19.0143 1.0005 18.1857 0.638 16.9C0.4495 16.2286 0.319 15.3286 0.232 14.1857C0.1305 13.0429 0.0869999 12.0571 0.0869999 11.2L0 10C0 6.87143 0.232 4.57143 0.638 3.1C1.0005 1.81429 1.8415 0.985714 3.1465 0.628572C3.828 0.442857 5.075 0.314286 6.989 0.228571C8.874 0.128571 10.5995 0.0857142 12.1945 0.0857142L14.5 0C20.5755 0 24.36 0.228572 25.8535 0.628572C27.1585 0.985714 27.9995 1.81429 28.362 3.1Z" fill="#F3E8E8"/>
</svg>
